<?xml version="1.0" encoding="UTF-8"?>
<svg id="Capa_1" data-name="Capa 1" xmlns="http://www.w3.org/2000/svg" viewBox="0 0 380.39 311.39">
  <defs>
    <style>
      .cls-1 {
        fill: none;
        stroke: #1d1d1b;
        stroke-miterlimit: 10;
      }

      .cls-2 {
        fill: #1d1d1b;
        stroke-width: 0px;
      }
    </style>
  </defs>
  <circle class="cls-1" cx="191.63" cy="192.85" r="118.04"/>
  <circle class="cls-1" cx="69.6" cy="71.01" r="69.1"/>
  <circle class="cls-1" cx="310.8" cy="69.6" r="69.1"/>
  <path class="cls-2" d="M310.8,7.82c-34.12,0-61.77,27.66-61.77,61.77,0,14.86,5.25,28.5,14,39.16-19.32-16.51-44.39-26.48-71.79-26.48-29.19,0-55.73,11.32-75.5,29.8,9.72-10.92,15.64-25.3,15.64-41.06,0-34.12-27.66-61.77-61.77-61.77S7.82,36.89,7.82,71.01s27.66,61.77,61.77,61.77c15.73,0,30.08-5.89,40.99-15.57-18.56,19.78-29.93,46.38-29.93,75.64,0,61.07,49.51,110.57,110.57,110.57s110.57-49.51,110.57-110.57c0-28.62-10.87-54.7-28.72-74.34,10.43,8.06,23.51,12.86,37.71,12.86,34.12,0,61.77-27.66,61.77-61.77s-27.66-61.77-61.77-61.77Z"/>
</svg>